<svg xmlns="http://www.w3.org/2000/svg" viewBox="0 0 128 128"><defs><style>.cls-1{fill:#ea0f73;}.cls-2{fill:#fff;}</style></defs><title>instagram-logo</title><g id="Logo"><rect class="cls-1" width="128" height="128"/><path class="cls-2" d="M64,36c9.13,0,10.22,0,13.82.2a18.93,18.93,0,0,1,6.35,1.18,11.33,11.33,0,0,1,6.49,6.49,18.93,18.93,0,0,1,1.18,6.35C92,53.78,92,54.87,92,64s0,10.22-.2,13.82a18.93,18.93,0,0,1-1.18,6.35,11.33,11.33,0,0,1-6.49,6.49,18.93,18.93,0,0,1-6.35,1.18C74.22,92,73.14,92,64,92s-10.22,0-13.82-.2a18.93,18.93,0,0,1-6.35-1.18,11.33,11.33,0,0,1-6.49-6.49,18.93,18.93,0,0,1-1.18-6.35C36,74.22,36,73.13,36,64s0-10.22.2-13.82a18.93,18.93,0,0,1,1.18-6.35,11.33,11.33,0,0,1,6.49-6.49,18.93,18.93,0,0,1,6.35-1.18C53.78,36,54.87,36,64,36m0-6.16c-9.29,0-10.46,0-14.1.21a25.11,25.11,0,0,0-8.3,1.59,17.49,17.49,0,0,0-10,10A25.11,25.11,0,0,0,30,49.9c-.17,3.65-.21,4.81-.21,14.1s0,10.46.21,14.1a25.11,25.11,0,0,0,1.59,8.3,17.49,17.49,0,0,0,10,10A25.11,25.11,0,0,0,49.9,98c3.65.17,4.81.21,14.1.21s10.46,0,14.1-.21a25.11,25.11,0,0,0,8.3-1.59,17.49,17.49,0,0,0,10-10A25.11,25.11,0,0,0,98,78.1c.17-3.65.21-4.81.21-14.1s0-10.46-.21-14.1a25.11,25.11,0,0,0-1.59-8.3,17.49,17.49,0,0,0-10-10A25.11,25.11,0,0,0,78.1,30c-3.65-.17-4.81-.21-14.1-.21Z"/><path class="cls-2" d="M64,46.43A17.57,17.57,0,1,0,81.57,64,17.57,17.57,0,0,0,64,46.43Zm0,29A11.4,11.4,0,1,1,75.4,64,11.4,11.4,0,0,1,64,75.4Z"/><circle class="cls-2" cx="82.26" cy="45.74" r="4.11"/></g></svg>