<svg xmlns="http://www.w3.org/2000/svg" viewBox="0 0 128 128"><defs><style>.cls-1{fill:#00b900;}.cls-2{fill:#fff;}</style></defs><title>line-logo</title><g id="分離模式"><rect class="cls-1" width="128" height="128"/><path class="cls-1" d="M103.74,1.46H24.2A22.72,22.72,0,0,0,1.44,24.05v79.54A22.72,22.72,0,0,0,24,126.36h79.54a22.72,22.72,0,0,0,22.76-22.59V24.23A22.71,22.71,0,0,0,103.74,1.46"/><path class="cls-2" d="M109.16,58.42c0-20.35-20.4-36.9-45.47-36.9S18.21,38.07,18.21,58.42c0,18.24,16.18,33.52,38,36.41,1.48.32,3.5,1,4,2.24a9.34,9.34,0,0,1,.15,4.11l-.65,3.89c-.2,1.15-.91,4.5,3.94,2.45S89.87,92.1,99.41,81.12h0c6.59-7.23,9.75-14.56,9.75-22.7"/><path class="cls-1" d="M54.44,48.59H51.25a.89.89,0,0,0-.89.88V69.28a.88.88,0,0,0,.89.88h3.19a.88.88,0,0,0,.89-.88V49.47a.89.89,0,0,0-.89-.88"/><path class="cls-1" d="M76.4,48.59H73.21a.89.89,0,0,0-.89.88V61.24L63.24,49l-.07-.09h0l-.05-.05,0,0,0,0,0,0,0,0,0,0,0,0h0l-.05,0h0l-.05,0H59.32a.89.89,0,0,0-.89.88V69.28a.88.88,0,0,0,.89.88h3.19a.89.89,0,0,0,.89-.88V57.52l9.09,12.28a.88.88,0,0,0,.22.22h0l.05,0h0l0,0,0,0h0l.06,0h0a.87.87,0,0,0,.23,0H76.4a.88.88,0,0,0,.89-.88V49.47a.89.89,0,0,0-.89-.88"/><path class="cls-1" d="M46.76,65.21H38.09V49.47a.89.89,0,0,0-.89-.89H34a.89.89,0,0,0-.89.89V69.28h0a.88.88,0,0,0,.25.61h0a.88.88,0,0,0,.61.25H46.76a.89.89,0,0,0,.88-.89V66.09a.89.89,0,0,0-.88-.89"/><path class="cls-1" d="M94,53.55a.88.88,0,0,0,.88-.89V49.47a.89.89,0,0,0-.88-.89H81.27a.88.88,0,0,0-.61.25h0v0a.88.88,0,0,0-.25.61h0V69.28h0a.88.88,0,0,0,.25.61h0a.88.88,0,0,0,.61.25H94a.89.89,0,0,0,.88-.89V66.09a.89.89,0,0,0-.88-.89H85.35V61.86H94A.88.88,0,0,0,94.9,61V57.78A.89.89,0,0,0,94,56.9H85.35V53.55Z"/></g></svg>