<svg id="圖層_1" data-name="圖層 1" xmlns="http://www.w3.org/2000/svg" viewBox="0 0 128 128"><defs><style>.cls-1{fill:#ef5c4d;}.cls-2{fill:#fff;}</style></defs><title>plurk-logo</title><rect class="cls-1" width="128" height="128"/><path class="cls-1" d="M105.13,13.69H22.87A10.28,10.28,0,0,0,12.59,24v82.25a10.28,10.28,0,0,0,10.28,10.28h82.25a10.28,10.28,0,0,0,10.28-10.28V24A10.28,10.28,0,0,0,105.13,13.69ZM90,81.61a35.06,35.06,0,0,1-20,8.51,18.42,18.42,0,0,1-5.8,8.43A20.41,20.41,0,0,1,51,103.31a20.17,20.17,0,0,1-13.35-4.86,18.11,18.11,0,0,1-6.49-13.91v-26A29.7,29.7,0,0,1,42,35.52a35.74,35.74,0,0,1,24-8.63A35.62,35.62,0,0,1,90,35.6c7.09,6.14,10.84,14.08,10.84,23A29.85,29.85,0,0,1,90,81.61Z"/><path class="cls-2" d="M71.17,54.09a8.11,8.11,0,0,0-10.4,0,5.71,5.71,0,0,0-2.19,4.46V64.9H66a7.79,7.79,0,0,0,5.26-1.83,5.73,5.73,0,0,0-.06-9Z"/><path class="cls-2" d="M90,35.6a35.62,35.62,0,0,0-24-8.71,35.74,35.74,0,0,0-24,8.63,29.7,29.7,0,0,0-10.88,23v26a18.11,18.11,0,0,0,6.49,13.91A20.17,20.17,0,0,0,51,103.31a20.41,20.41,0,0,0,13.28-4.75A18.42,18.42,0,0,0,70,90.12a35.06,35.06,0,0,0,20-8.51,29.85,29.85,0,0,0,10.84-23.05C100.82,49.68,97.08,41.74,90,35.6ZM81.91,72.29A23.51,23.51,0,0,1,66,78H58.58v6.54a5.75,5.75,0,0,1-2.25,4.56A8.1,8.1,0,0,1,51,91a7.87,7.87,0,0,1-5.31-1.88,5.8,5.8,0,0,1-2.19-4.56v-26q0-8,6.58-13.68A23.64,23.64,0,0,1,66,39.22a23.52,23.52,0,0,1,15.94,5.7q6.58,5.7,6.58,13.63T81.91,72.29Z"/><path class="cls-1" d="M81.91,44.92A23.52,23.52,0,0,0,66,39.22,23.64,23.64,0,0,0,50,44.87q-6.58,5.65-6.58,13.68v26a5.8,5.8,0,0,0,2.19,4.56A7.87,7.87,0,0,0,51,91a8.1,8.1,0,0,0,5.37-1.88,5.75,5.75,0,0,0,2.25-4.56V78H66a23.51,23.51,0,0,0,15.94-5.7q6.58-5.7,6.58-13.73T81.91,44.92ZM71.23,63.07A7.79,7.79,0,0,1,66,64.9H58.58V58.55a5.71,5.71,0,0,1,2.19-4.46,8.11,8.11,0,0,1,10.4,0,5.73,5.73,0,0,1,.06,9Z"/></svg>