<svg xmlns="http://www.w3.org/2000/svg" xmlns:xlink="http://www.w3.org/1999/xlink" viewBox="0 0 128 128"><defs><style>.cls-1{fill:url(#linear-gradient);}.cls-2{fill:#fff;}</style><linearGradient id="linear-gradient" x1="64" y1="0.67" x2="64" y2="128.67" gradientUnits="userSpaceOnUse"><stop offset="0" stop-color="#e52d27"/><stop offset="1" stop-color="#bf171d"/></linearGradient></defs><title>youtube-logo</title><g id="YouTube_Icon" data-name="YouTube Icon"><rect class="cls-1" width="128" height="128"/><g id="Lozenge"><path class="cls-2" d="M102.79,48.17s-.77-5.46-3.15-7.86A11.32,11.32,0,0,0,91.71,37c-11.08-.8-27.7-.8-27.7-.8h0s-16.62,0-27.7.8a11.32,11.32,0,0,0-7.93,3.35c-2.37,2.4-3.15,7.86-3.15,7.86A119.73,119.73,0,0,0,24.42,61v6a119.73,119.73,0,0,0,.79,12.81s.77,5.46,3.15,7.86c3,3.15,7,3.05,8.73,3.38,6.33.61,26.92.8,26.92.8s16.63,0,27.71-.83a11.32,11.32,0,0,0,7.93-3.35c2.37-2.4,3.15-7.86,3.15-7.86A119.89,119.89,0,0,0,103.58,67V61A119.89,119.89,0,0,0,102.79,48.17Zm-47,26.1V52L77.21,63.19Z"/></g></g></svg>